<svg xmlns="http://www.w3.org/2000/svg" viewBox="0 0 32 32" shape-rendering="crispEdges">
  <!-- fully bald dome (no hair on top) -->
  <rect x="12" y="4" width="8" height="1" fill="#cdaa84" />
  <rect x="10" y="5" width="12" height="1" fill="#cdaa84" />
  <rect x="9" y="6" width="14" height="1" fill="#cdaa84" />
  <rect x="12" y="6" width="6" height="1" fill="#dcbc94" />
  <rect x="9" y="7" width="14" height="1" fill="#cdaa84" />
  <rect x="9" y="8" width="14" height="1" fill="#cdaa84" />
  <rect x="9" y="9" width="14" height="1" fill="#cdaa84" />
  <rect x="9" y="10" width="14" height="1" fill="#cdaa84" />
  <!-- thin grey buzz, sides only -->
  <rect x="8" y="8" width="1" height="3" fill="#c4bfb5" />
  <rect x="23" y="8" width="1" height="3" fill="#c4bfb5" />
  <rect x="9" y="9" width="1" height="2" fill="#bdb8ad" />
  <rect x="22" y="9" width="1" height="2" fill="#bdb8ad" />
  <!-- grey eyebrows -->
  <rect x="10" y="11" width="3" height="1" fill="#b5b0a6" />
  <rect x="18" y="11" width="3" height="1" fill="#b5b0a6" />
  <!-- glasses -->
  <rect x="9" y="12" width="14" height="1" fill="#3a3a3a" />
  <rect x="9" y="12" width="6" height="1" fill="#4a4a48" />
  <rect x="17" y="12" width="6" height="1" fill="#4a4a48" />
  <rect x="15" y="12" width="2" height="1" fill="#3a3a3a" />
  <rect x="9" y="13" width="14" height="1" fill="#cdaa84" />
  <rect x="9" y="13" width="6" height="1" fill="#4a4a48" />
  <rect x="17" y="13" width="6" height="1" fill="#4a4a48" />
  <rect x="11" y="13" width="2" height="1" fill="#2b2b2b" />
  <rect x="19" y="13" width="2" height="1" fill="#2b2b2b" />
  <rect x="15" y="13" width="2" height="1" fill="#cdaa84" />
  <!-- cheeks / nose + eye bags -->
  <rect x="9" y="14" width="14" height="1" fill="#cdaa84" />
  <rect x="10" y="14" width="3" height="1" fill="#b89a74" />
  <rect x="18" y="14" width="3" height="1" fill="#b89a74" />
  <rect x="15" y="14" width="2" height="1" fill="#b08a64" />
  <rect x="9" y="15" width="14" height="1" fill="#cdaa84" />
  <rect x="15" y="15" width="2" height="1" fill="#b08a64" />
  <rect x="9" y="16" width="14" height="1" fill="#cdaa84" />
  <rect x="14" y="16" width="4" height="1" fill="#b89470" />
  <rect x="9" y="16" width="2" height="1" fill="#c4bfb4" />
  <rect x="21" y="16" width="2" height="1" fill="#c4bfb4" />
  <!-- short grizzled grey beard -->
  <rect x="9" y="17" width="14" height="1" fill="#cdaa84" />
  <rect x="11" y="17" width="10" height="1" fill="#cdc8bd" />
  <rect x="9" y="18" width="14" height="1" fill="#cdaa84" />
  <rect x="10" y="18" width="12" height="1" fill="#cdc8bd" />
  <rect x="13" y="18" width="6" height="1" fill="#6a5444" />
  <rect x="10" y="19" width="12" height="1" fill="#c4bfb4" />
  <rect x="11" y="20" width="10" height="1" fill="#c4bfb4" />
  <rect x="12" y="21" width="8" height="1" fill="#bcb7ac" />
  <!-- neck + collar -->
  <rect x="12" y="22" width="8" height="1" fill="#b08a64" />
  <rect x="10" y="23" width="12" height="1" fill="#d9d4c8" />
  <!-- grey jacket -->
  <rect x="9" y="24" width="14" height="1" fill="#6f6a5c" />
  <rect x="14" y="24" width="4" height="1" fill="#d9d4c8" />
  <rect x="7" y="25" width="18" height="1" fill="#6f6a5c" />
  <rect x="15" y="25" width="2" height="1" fill="#c9c4bb" />
  <rect x="5" y="26" width="22" height="1" fill="#6f6a5c" />
  <rect x="11" y="26" width="1" height="1" fill="#565247" />
  <rect x="20" y="26" width="1" height="1" fill="#565247" />
  <rect x="4" y="27" width="24" height="1" fill="#6f6a5c" />
  <rect x="3" y="28" width="26" height="4" fill="#6f6a5c" />
  <rect x="3" y="28" width="1" height="4" fill="#5a5648" />
  <rect x="28" y="28" width="1" height="4" fill="#5a5648" />
</svg>
